# xmcd CD database file
#
# Track frame offsets:
#	150
#	22345
#	48968
#
# Disc length: 1031 seconds
#
# Revision: 0
# Processed by: cddbd v1.5.1PL0 Copyright (c) Steve Scherf et al.
# Submitted via: CDex 1.51
#
DISCID=21040503
DTITLE=3B LAB.☆ - Let's HappiecE Life!
DYEAR=2005
DGENRE=Rock
TTITLE0=Let's HappiecE Life!
TTITLE1=最後によかった
TTITLE2=Let's HappiecE Life!(unplugged ver.)
EXTD=YEAR: 2005
EXTT0=
EXTT1=
EXTT2=
PLAYORDER=
